<svg xmlns="http://www.w3.org/2000/svg" width="33.001" height="48" viewBox="0 0 33.001 48">
  <path id="lightbulb" d="M16.5,7.5a9.01,9.01,0,0,0-9,9,1.5,1.5,0,1,0,3,0,6.007,6.007,0,0,1,6-6,1.5,1.5,0,1,0,0-3ZM9.006,43.048a1.49,1.49,0,0,0,.251.829l2.3,3.454A1.5,1.5,0,0,0,12.8,48H20.2a1.5,1.5,0,0,0,1.249-.669l2.3-3.454a1.508,1.508,0,0,0,.251-.829L24,39H9ZM16.5,0A16.491,16.491,0,0,0,4.084,27.355,26.829,26.829,0,0,1,9,36V36h4.5v-.011a4.436,4.436,0,0,0-.2-1.319A29.562,29.562,0,0,0,7.468,24.389a12,12,0,1,1,18.065,0,29.628,29.628,0,0,0-5.822,10.262,4.454,4.454,0,0,0-.208,1.341V36H24v0a26.809,26.809,0,0,1,4.914-8.64A16.493,16.493,0,0,0,16.5,0Z" fill="#fff"/>
</svg>
