<svg xmlns="http://www.w3.org/2000/svg" width="152" height="104.677" viewBox="0 0 152 104.677">
  <g id="trk1:Saturday_8_1" transform="translate(-1 -1)">
    <path id="trk1:p1052" d="M9.863,81.016l.218.266.218.339.218.387.145.242.1.121.169.145.363.218.6.339,1.065.532.435.194.169.194.556.726.121.073.1.048.266-.024.46-.048h.1l.194.073.194.169.629.677.435.581.194.29.073.145.1.339.218.919.145.532.073.363.024.218.073.218.194.629.073.145h0l1.863-.242.944-.194,1.113-.169.145-.024.218.024.169.048.145.048.121.073.242.194,1.016,1.089h0l.919.919.653.653.242.266h0l.1.218.073.218.242,1.234h0l.242,1.573.121.677h0l5.2.629,3.726.46.774.073,1.04.1.411.024.871-.024,1.863-.073.653-.073.339-.073.726-.194.315-.121.653-.266,1.016-.484.75-.363L47.145,95.1l1.839-.9,1.887-.9,1.016-.484.218-.073.29-.048.024.1h0l.1.629.145.944.073.6.1.677.242,1.935.194,1.331.218,1.742.121.8.363,3.1.073.073.073.048v-.024l.774-.1,1.04-.194,1.645-.266,1.718-.218.629-.073,1.548-.169,1.113-.1.871-.1,3.363-.339,1.524-.145.411-.048.121-.024.073-.048.048-.121.024-.073v-.411l-.048-1.258-.048-.145-.048-.048-.1-.048-.339-.1-.169-.1-.073-.121-.048-.145L68,99.234V98.8l.024-.339.339-1.234.073-.339v-.242l-.024-.387.048-.073.024-.024.363-.024.242-.024.266-.1.508-.339.363-.121.218-.048.653-.073.169-.024.1-.024.073-.048.1-.169v-.29l-.073-.919-.024-.435V93.21h0l-.048-4.282-.024-.823-.024-.532L71.1,83.629,71,81.815,70.492,78.4,70.274,77.1l-.073-.218-.194-.508-.073-.242-.073-.339V75.6l.024-.194.073-.315.218-.9.1-.484.145-1.452.048-.556.1-1.016v-.508l-.1-.629-.532-3.75-.073-.774h.048l3.435-.677,3.944-.8,1.355-.266,1.089-.242,1.887-.508,3.726-.968,1.669-.411,1.113-.29h0l.024,1.694.024,1.185-.024,2.226.024,1.935.024.048.073.073.145.024,1.016-.145,1.742-.29.581-.073h0l.363-.581.145-.169.194-.194.218-.145.266-.194.194-.145.532-.556.29-.315.1-.145.1-.194.242-.581.145-.29.194-.315.218-.242.145-.169.363-.411.435-.46.581-.581.411-.387.411-.29.339-.218.145-.145.073-.121.677-1.258.532-1.016.145-.242.121-.145.435-.581.218-.29.266-.363.339-.556.532-.8.242-.315.581-.7.992-1.113.339-.266.218-.121.339-.121.944-.169.992-.145.218-.073.169-.048.242-.169.169-.145.121-.145.242-.508.121-.218.145-.242.121-.145.145-.145.242-.145.29-.121.677-.169.387-.048,1.573-.073.484-.073,1.911-.411.774-.145.677-.1.411-.024.75.169,2.056.484,1.694.387.484.1.363-.024.315-.048.266-.145.218-.145.8-.7.387-.266.339-.194.363-.145.411-.145.169-.048h.242V48.5l.048-.484.024-.919.073-.75.073-.363.121-.242.218-.242,1.258-1.4.46-.46.653-.484.629-.508.629-.556.508-.508.218-.315.242-.435.266-.435.1-.194.726-1.331.266-.484.145-.218.532-.653,1.016-1.137.145-.194.242-.46.339-.532.315-.581.29-.653.436-.992.532-1.258.218-.484.169-.363.46-.8.7-1.282,1.04-1.452.363-.484.387-.556.121-.169.363-.9.1-.266.145-.194.29-.315.363-.315.169-.169.169-.242.194-.339.145-.242.266-.411.169-.242.073-.121.048-.121.048-.242.073-.75.073-.532.048-.218.121-.145.194-.266.1-.145.1-.242.073-.315v-.387l-.024-.7.048-.315.1-.363.169-.339.169-.266.387-.508.145-.266.315-.774.484-1.452.121-.46.073-.339.024-.29L143,12.6l-.29-1.573-.194-.992h0V9.96l.992.194.6.121,1.79.339,2.952.556.726.145h0l1.96.387.266.048L152,11.8l-.073.363-.145.7-.1.435-.048.1-.073.073-.484.266-.339.218-.242.145-.073.1-.121.242-.073.242-.1.411-.048.145h-.121l-.145-.024-.1.726-.048.484-.024.194-.1.992-.1.9-.1.508-.1.363-.121.387-.194.484-.315.75-.242.629-.048.218-.508,2.879-.9,5.419-.847,5.1-.629,3.847-.556,3.169.024.194.024.121.411,1.282.484,1.476.145.508.024.266.048.774.048,1.645v.653l-.073.581L146,50.6l-.1.726-.1.556-.1.169-.29.29-.121.266-.29.726-.363.847-.315.8-.363.9-.46,1.016-.556,1.282-.169.46-.048.073.073.048h0l-.073-.048-.048.121-.726-.1L140,58.419l-.194-.024-.145.024-.169.048-.339.218-.46.29-.218.169-.194.145-.363.435-.121.145-.1.169-.145.532-.073.339.048.919.048.823.024.242.411,1.621.508,1.984.048.339.024.944-.024.629-.194,1.427-.194,1.379-.073.339-.169.508-.121.242L136.9,74.46l-.29.6-.024.145.024.169.073.266-.024.121-.024.073-.048.145-.194.387-.387.726-.073.145-.073.266-.073.363-.218.871-.1.315-.411.774-.677,1.185-.387.435-.484.653-1.306,2.177-.726,1.185-.508.8-.411.653-.847,1.379-.266.411-.435.726-.847,1.331-.387.6-.411.629-.1.073-.121.073-.363.048-1.718.169h-.1l.024-.048h0l-.024.048h-.169l-.194-.048-1.621-.363-1.476-.363-1.96-.339-1.935-.29-2.177-.339-1.306-.218-.75-.121-.556-.1-.339-.1-.726-.218-.774-.242-1.234-.339-1.234-.363-2.129-.6-2.056-.581-.7-.218-.677-.218-.339-.145-.29-.194-.266-.218-.919-.944-.46-.508-.242-.315-.169-.387-.194-.532-.242-.653-.29-.6-.532-1.161-.29-.677-.073-.29-.073-.339-.073-.532-.169-1.548h0l-.024-.073-.871-.048-.629-.048-.508-.048-.218-.024-.121-.048-.145-.1-.7-.484-.145-.1-.194-.024-.484.048-1.645.218-.339.048.024.1h0l-.266-1.161-.145-.629-.073-.339-.024-.411-.024-.411-.46-2.4-.048-.339-.024-.484v-.242l.024-.484.048-.435.048-.411.073-.532.1-.581.169-.726.024-.242v-.435l-.121-1.306-.145-1.21L91.1,61.879l-.121-.992-.048-.6-.024-.823V57.113l-.048-.218-.218-.968-.194-1.089-.121-.532-.024-.339v-.46l-.024-.194-.073-.629-.073-.411-.121-.339-.121-.29-.242-.581-.145-.218-.121-.145-.242-.218-.218-.145-.315-.121h0l-.048-.024-.024-.266-.024-.194-.1-.677-.024-.363v-.1l.073-.169.1-.1.387-.29.339-.315.121-.242.073-.145.145-.9.218-1.089.073-.46v-.339l-.145-1.984-.048-.677-.073-1.137-.048-.677-.048-.532-.242-1.4-.145-.653-.194-.774-.46-2.371-.048-.339-.048-.387-.242-2.371-.1-1.089-.1-1.137-.024-.653V28.1l.048-.29.29-.532.363-.556.1-.169.073-.194v-.339l-.073-.532-.339-2.274-.145-1.161-.145-1.282-.1-.7-.1-.677-.169-1.331-.194-1.258-.145-1.089V15.4l.048-.169.121-.169.121-.1.194-.1.363-.121,1.016-.29.048-.75v-.29l-.024-.315-.1-1.282L89.1,10.1l-.048-.992-.024-.363-.218-1.379-.29-1.79-.484-3.048L87.911,2h.073l-1.427.194-.387.073-.411.169-.218.145-.145.1-.532.508-.363.339-.29.194-.218.121L81.089,4.9l-3.169.871-1.04.29-.363.048-1.185.1-1.016.145-.484.024-.169.024-.315.121L73.2,6.6l-.435.242-.677.411-.218.169-.194.169-.363.435-.266.363-.073.145-.169.315-.1.194-.145.169-.242.218-.169.1L69.96,9.6l-.339.048-.339.024-1.089.121-.218.073-.145.1-.1.121-.6,1.04-.194.339-.339.677-.266.581h-.048l-.315-.121-.29-.073-.218-.073-.677-.1-.532-.048-.871-.024-.29.048-.169.073-.121.121-.411.484-.411.435-.363.363-.1.121-.1.169-.145.387-.169.6-.073.169-.1.194-.073.1-.242.194-.532.435-.242.194-.653.387-.121.1L58.927,17l-.1.145-.145.218-.218.363-.194.266-.145.145-.266.194-.145.073h0l-.339.1-.363.048H55.54L54.161,18.5l-.9-.048-.411-.024-.484-.121-.242-.024-.315.073-1.137.532-.774.46-.218.073h-.169l-.46-.1-.629-.218-.339-.073-.339-.048-.411-.024-.266-.048-.266-.121-.363-.29-.387-.363-.242-.194-.435-.315-.677-.508-.1-.048-.121-.048L44.169,17h-.581l-.218-.024L43.2,16.9l-1.161-.823-.266-.194-.218-.1-.145-.024-.242.048-.968.29-.242.121-.46.266-.411.315-.315.315-.315.387-.532.726-.218.218-.363.29-.435.315-.242.024-.145-.024-.411-.218-.532-.315-.315-.169-.823-.556-.1-.073-.218-.218-.145-.218-.339-.7-.218-.387-.194-.339-.242-.387-.339-.556-.194-.29-.218-.194-.266-.145-.484-.121-.218-.048-1.04-.218v.048h0V13.9l-.435-.1-.653-.145-1.476-.411-.847-.266-.315-.121-.435-.194-.169-.1h0l-.145-.048-.121.024-.073.024-.1.169-.194.629-.1.218-.073.1-.1.1-.315.194-.266.169-.073.073-.847,1.234-.29.46-.484.653-.218.194-.145.121L22.323,17l-.145.242-.024.024h0l-.048.073.218.29.266.339h0l-.581.387-1.524.944-.992.653-.9.6-.145.048-.145.024-1.548-.194-.508-.024-.387-.048-1.427-.242-1.306-.194L11.1,19.444l-.218-.048h-.1l-.145.048-.024.024h0l-.774,1.04-.556.677-.169.145-.266.169-.411.339-.411.387-.242.218L7.4,22.71l-.508.315-.363.194-.7.315-.29.169-.169.121-.266.242-.121.145-.048.121-.024.121L5.048,25.9l.048.363.024.1.169.653.218,1.137.048.339.048.048h0l.1.048.194.024,1.161-.194,1.089-.169.629-.121.218-.073.194-.073.218-.1.29-.169.411-.242h.145l.145.073.169.218.435.6.653.919,1.065,1.427.363.46.121.1h.024l.073.024.242-.073h.048l.726-.121.339-.1.315-.145.315-.169.9-.46.339-.121.75-.218.29-.1.121-.073.073-.048.024.024h0l.121.145.048.073.073.194v.242l-.1.7L17.8,32.145l-.073.726-.048.484v.266l.024.266.121.823.024.169.048.169.145.242.121.194.242.29.194.363.073.145.315.919.145.6.073.242.194.218.242.169.992.532.75.387.556.266.435.169.508.218.363.121.315.169h0l-.073.653-.048.29-.145.46-.145.46-.46,1.185L21.5,46.565l-.1.315-.024.218v.556l.024.194.1.363.121.532.121.29.024.145.169.048-.024.073.048.073.411.484.218.339.1.218.073.194.048.315.121.508.194.871.048.46.024.29.048.194.1.121.218.145.339.169.411.194h0l-.653,1.185-.169.194-.169.194-.29.194L21.21,56.871l-.484.315-.169.073-.194.073-.218.121-.169.121-.315.387-.169.121-.7.411-.46.315-.508.46-.339.387-.169.194L17,60.5l-.315.581-.315.532h0v.024l-.169-.073-.363-.169-.871-.387h0l-.024-.024-.024.048-.532,1.379-.363,1.065-.8,2.3-.435,1.258-.435,1.137-.7,1.718-.048.194-.363.871-.387,1.04-.387,1.137-.1.242-.048-.024h0L8.75,72.839l-.218-.073-.1-.048-.169-.145-.992-1.065-.242-.266L6.718,70.9h0l-.073-.1L6.234,71l-.556.315-.363.194-.774.435-.218.121-.29.315-.629.6-.339.363-.266.29-.145.194L2,74.992v.1l.024.073.194.145-.1.048h0l.169-.073H2.46l.484.1,1.742.339.6.145,1.21.387.75.169.774.121H8.1v.1h0v.024l-.024.145-.048.1-.629.8-.823,1.04.024.048.6.484.6.46h0l.048.048-.266.339-.048.1.024.1.048.1.629.315.8.363.218.073H9.4l.46-.145" fill="none" stroke="#fff" stroke-linejoin="round" stroke-width="2"/>
  </g>
</svg>
