<svg xmlns="http://www.w3.org/2000/svg" width="122" height="171.708" viewBox="0 0 122 171.708">
  <g id="trk1:Tuesday_7_21" transform="translate(-1 -1)">
    <path id="trk1:p1048" d="M13.2,148.633l-.027-.109-.027-.137.027-.164.027-.246.274-1.341.027-.274-.027-.164v-.164l-.055-.192-.493-1.588-.055-.219-.027-.164v-.328l.109-.274.739-2.08.465-1.341.383-1.013.328-.876.082-.164.657-1.7L16.042,135l.411-1.232.794-2.245.356-1.04.547-1.451.164-.493.082-.246.027-.137v-.192l-.082-.274-.219-.52-.109-.356-.055-.411v-.082l.027-.219.055-.383v-.164l-.055-.109-.055-.082-.164-.192-.082-.055-.63-.411-.438-.356-.328-.3-.192-.192-.137-.11-.137-.109h0l-.849-.465-.52-.274-.493-.411-.383-.246-.219-.109-.438-.164-.328-.192-.547-.3-.52-.3-.356-.137-.219-.137-.164-.137-.274-.274-.3-.274-.274-.328-.411-.657-.465-.821-.137-.192-.109-.137-.328-.3-.356-.356-.684-.63-.328-.192-.328-.164-.657-.328-.52-.274-.411-.3-.219-.192-.055-.164-.137-.274-.055-.739-.055-.274-.082-.328L4.162,112.2l-.246-.849-.109-.438L3.7,110.2l-.082-.739L3.533,109l-.109-.438-.082-.356-.082-.3h0v-.109l.055-.137-.137-.082-.192-.137-.109-.082-.657-.575L2,106.535l.082-.164h0l.411-.849.411-.931.109-.246.082-.465.027-.411V103.2l.055-.3.411-1.588.164-.493.027-.109L4,100.239l.274-.63.52-1.122.109-.274.137-.137.164-.164.164-.082.109-.055.985-.3,2.409-.794h0l-.137-.739-.164-.6-.027-.109-.055-.356-.082-.684-.055-.712V93.4l.082-.164.109-.137.164-.192.246-.164.465-.246.739-.356.821-.52.164-.109.246-.219.383-.383.219-.192.356-.246.164-.109.274-.3.6-.766.493-.657.055-.055.027-.109.027-.082v-.055l-.055-.082-.137-.137L13.661,88l-.3-.246-.164-.164-.027-.082-.027-.082v-.082l.109-.712L13.3,86.2l.082-.465.109-.684.027-.219-.055-.684.027-.192.055-.164.192-.328.411-.766.6-1.04.274-.465h0v-.027h.109l.055-.219.164-1.67v-.493l.027-.739.027-.547.082-.411.109-.411v-.164l-.027-.137-.082-.137-.712-.657-.274-.3-.3-.465-.164-.328-.082-.219.027-.164.328-1.04.082-.328.027-.137v-.164l-.219-.6-.164-.356-.3-.6-.164-.383-.027-.246v-.192l.027-.328.082-.712.438-1.56.219-.821.109-.356.027-.192-.055-.52-.137-1.314-.109-.876-.027-.3-.109-.657-.055-.274-.109-.274-.082-.137-.082-.164-.192-.3-.766-1.013-.192-.274-.356-.493-.109-.137h.055l-.657.274-.082.055h0l-.027.027-.082-.411-.137-.63-.219-.931-.137-.575-.547-1.861-.465-1.615-.3-1.122-.164-.493-.328-.821-.356-.931-.246-.63-.055-.328-.164-1.122-.219-.876-.356-1.4-.082-.3-.328-.52-.164-.3-.082-.164L6.872,44.4l-.137-.9-.082-.411-.328-1.177-.055-.164-.027-.383-.055-.192-.027-.164-.082-.137L6,40.732l-.137-.164-.192-.3v-.356l-.055-1.232-.055-1.505.027-.328.027-.109.082-.192.164-.3.3-.411.931-1.2.246-.274.137-.137.164-.027.219.027.055.027h0l.192.109.192.192.3.246.246.137.3.109.219.055h.3l.274-.055.465-.164.274-.109.52-.3.3-.192.876-.63.411-.328.383-.383.356-.356.3-.383.931-1.67.274-.383.192-.3,1.068-1.451.985-1.286.219-.274.3-.274.328-.246.411-.3h0l-.109-.63-.109-.657v-.192l-.082-.192-.246-.985-.055-.274-.164-.63-.493-1.369-.082-.137-.164-.3-.192-.3-.547-.794-.493-.739-.246-.383-.219-.383-.6-1.04-.465-.766-.876-1.478-.274-.411-.137-.246-.192-.192-.192-.246-.246-.274-.219-.219-.192-.109L11.69,13l-.465-.055-1.177-.082L9.5,12.812,8.925,12.7l-.52-.109-.465-.082-.246.055h0l.192-.356.137-.164.274-.274.192-.109.383-.192.328-.109h.3l.547.055.192-.027.356-.055.411-.055.356-.055.411-.055.219-.027.246-.082.274-.082.219-.109.164-.109.274-.082.164-.082.246-.109.438-.274.109-.109.164-.246.411-.684.575-.876.356-.547.109-.246.082-.274.137-.192.219-.3.082-.137.082-.246.082-.082.137-.192.192-.274.082-.164.055-.246.027-.219h0l.356-.137.356-.192,1.943-1.095.493-.3.493-.164.63-.164.219-.055h.657l1.122-.082.575-.109.3-.082.493-.192.328-.164.438-.3L25.513,2l.274.438.3.493.109.164.082.082.356.246.411.246.3.164L27.812,4l.356.137.192.082.52.465,1.013.958.411.328,1.068.876.164.164.082.109.274.192.3.109.3.055h.274l.876-.192.246-.055.274-.137.246-.137.52-.356.438-.219.109-.027.137-.137.849-.712.137-.192.137-.274L36.9,4.71l.383-.657.274-.438.246-.328.082-.109.356-.274.438-.411.055.055h0l1.232.9.985.766.328.274.328.328.657.63L43.8,6.763l.465.438.137.109.192.027H44.7l.192-.055.274-.137.3-.137L45.8,6.9l.274-.082h.137l.52.027h.958l.137.082.137.082.192.328.274.52.055.109.219-.055.52-.164.849-.274.328-.109h0l.137.3.547.794.164.246.082.192.493,1.259.137.493.274.821.137.356.3.63.082.219.027.192.055.575.027.356.027.821.027.794.027.712.027.465V17l.055.246.027.109.192.3.246.274.739.766.657.63.6.575.849.849.274.219.328.192.328.109.6.219.821.137.766.109.356.027.3-.027.493-.082,1.095-.3.356-.082.52-.027.246.027.246.055.849.246,1.642.438.6.219.219.137.684.465h0l.3.055.766.164.438.109.246.082.356.137.356.082h.137l.109-.055.164-.055.493-.356.164-.109.137-.027h.137l.192.027.137.027.383.109h.356l.164-.055.246-.055.192-.082.192-.082.137-.109.411-.411.246-.274.493-.547.137-.082.328-.137.192-.055.438-.027h.246l.438.109.274.027.52.055.52.027.657-.027.794.082.547.027H79.3l.3-.055.712-.219.465-.164,1.67-.547.411-.027.164.055.3.109.219.137.192.137.192.164.411.3.192.109.164.055.465.192.356.137.52.328.411.246.055.055.055-.027h0l-.055.027.192.246.109.192.137.219.164.411.246.6.411,1.095.137.3.082.3.055.274.192,1.286.219,1.56h0l.438.055.63.109.6.137,1.314.246,1.505.3,1.15.274.055.055.082.465v.657l.055.766v.493l.055.465.027.63v.192l.027.109.055.055.082.027.712.164,1.177.192.246.055.219.109.246.055.712.192.356.055.328-.027h.137l.411.055.52.109.411.055,1.013.192.712.109.3.055h.164l.465.082.52.082.958.219,1.341.3,1.095.192.876.137,1.286.246,1.588.274.931.219.493.082,1.259.219,2.327.438,2.518.493.52.082.712.082.027.055h0l.192,2.3.109.739.356,2,.109.3.109.356.164.328.219.328,1.286,1.943.192.356.082.219.027.246.055.164v.219l-.027.3-.328,2.245-.109.63-.109.63-.164.9-.3,1.423-.137.766-.109.657-.082.657-.164,1.068-.055.465-.164,1.15-.575,3.175-.493,2.765-.465,2.491-.219,1.341-.137.739-.055.6-.3,1.423-.383,2.108-.356,2.08-.493,3.175-.411,2.272-.274,1.4-.411,2.3-.274,1.369-.383,1.916-.547,2.792-.109.438-.192.547-.3.575-.356.465-.164.219-.192.164-.575.465-.411.246-.52.219-.465.137-.821.137-.383.082h-.027l.082.575.137,1.013.082.52.137,1.177.109.821.274,1.533.547,3.723.192,1.423v.575l-.027.411-.082.821-.055.328-.055.164-.055.137-.465.684-.109.192-.027.219.027.274.082.575.192,1.04.438,3.011.164,1.04v.246l-.274,2.847-.082.657h0l.027-.055h-.465l-.3.027-.547.027-.383.055-.657.137-.3.137-.219.137-.137.137-.109.137-.137.246-.137.219-.246.493-.109.137-.137.137-.246.164-.164.055-.219.055-.958.164-.931.164-.328.109-.219.109-.328.274-.958,1.095-.575.657-.246.328-.493.766-.356.547-.246.356-.219.274-.438.575-.082.137-.164.246-.52.985-.657,1.232-.082.109-.137.164-.328.192-.383.3-.411.356-.575.575-.794.849-.137.164-.192.246-.192.3-.137.274-.246.575-.109.192-.082.137-.274.328-.52.52-.192.164-.246.164-.219.164-.192.164-.137.164-.356.575h0l-1.122.164-1.341.219-.684.109H89.7l-.082-.027-.055-.055-.027-.055v-4.571l-.027-1.56-.027-.63h0v-.109l-.328.082-.219.055-.657.164-1.971.52-3.641.931-1.533.411-.931.192-1.423.3-3.859.794-1.642.3-1.533.3H71.69v.055h0l.164,1.314.411,2.956.082.465.027.438-.055.739-.055.547-.027.383-.137,1.423-.055.383-.109.52-.192.766-.055.246v.219l.027.164.055.328.027.055.192.493.082.246.082.328.438,3.066.192,1.259.027.52.137,2.3.109,1.889.109,1.533.055,4.516v.356h0v.356l.082,1.259v.3l-.055.109-.082.082-.192.055-.356.027-.465.082-.328.082-.274.137-.246.164-.274.137-.274.055-.3.027h-.109l-.082.055v.082l.027.465-.027.274-.082.3-.246.876-.055.192v.164l-.027.383.055.465.082.575.027.246.055.137.137.109.137.082.383.109.055.109.027.164.055,1.451-.027.137-.027.082-.055.082-.082.055-.739.055-.411.055h0l-1.369.137-2.217.192-2.135.246-1.834.192-1.341.164-.931.109-1.177.192L57.1,171.6l-.821.109-.055-.055L56.2,171.6l-.246-2.053-.137-1.122-.246-1.752L55.4,165.44l-.082-.547-.3-2.381-.164-1.286-.192-1.095v-.082h.055l-.356.027-.192.082-.766.356-.6.274-1.232.6-1.013.493-.739.356L47.192,163.5l-1.314.63-.849.411-.383.137-.739.246L43.5,165l-.493.055-1.451.055-1.177.055-.438-.027-1.56-.109-3.12-.383-3.312-.411-2-.219-.712-.082h0l-.109-.684-.274-1.752-.219-.985-.055-.219-.109-.192-.219-.274-1.232-1.259L25.951,157.5l-.219-.246-.246-.219-.246-.109-.164-.027-.219-.027-1.232.164-.931.192-1.779.246h0l-1.259.164-1.2.164v.082h.027l.027.11.219.739.219.63.575,1.834.164.465.082.109.3.274.109.082.219.109.657.246.794.219.137.027.6-.137H22.8l.356.192.164.192.137.164.274.465.109.219.137.356.109.109.164.164.356.246.055.082.027.109.055.52v.356l.082.246.055.137.027.137v.137h0l-4.954-.52-1.4-.137-1.752-.137-1.56-.137h-.027l-.109-.63-.137-.766-.52-2.819-.219-1.122-.274-1.341v-.192l.109-.274.027-.109-.027-.027-.192-.137-.055-.082-.082-.164-.109-.274-.109-.274-.082-.137-.109-.164-.137-.137-.547-.383-.739-.493-.274-.219-.52-.547-.6-.657-.657-.739-.246-.246-.137-.246-.3-.438-.109-.137-.219-.246-.137-.109-.3-.219-.164-.055-.575-.3-.328-.192-.411-.246-.712-.63-.274-.219-.109-.137L5.586,150l-1.04-1.451-.931-1.369L2.9,146.17l-.027-.082-.055-.055-.164-.246-.137-.192h0l-.109-.192.383-.3.63-.438.985-.684,1.177-.821.192-.109h.137l1.533.3,1.122.219.931.3.52.164.383.082.9.164h.137l.027.109-.055.137-.027.109-.6.766-.794,1.013v.055l.6.493.547.411h0l.082.055-.246.328-.055.109v.109l.055.055.63.328.766.356.219.082.137-.027.465-.137" fill="none" stroke="#fff" stroke-linejoin="round" stroke-width="2"/>
  </g>
</svg>
