<svg xmlns="http://www.w3.org/2000/svg" width="86.014" height="214" viewBox="0 0 86.014 214">
  <g id="trk1:Thursday_8_6" transform="translate(-1 -1)">
    <path id="trk1:p957" d="M18.515,199.707l-.034-.205V199.3l.171-1.128.308-1.573v-.513l-.068-.308-.1-.41-.513-1.5-.171-.65-.068-.342v-.513l.034-.239,1.231-3.454,1.2-3.385.957-2.394,1.06-2.633.274-.786,1.026-2.941.923-2.7.581-1.607.65-1.675.274-.821.034-.376L26.209,169l-.239-.615-.239-.581-.068-.239-.1-.513v-.137l.034-.137.068-.581.034-.274v-.137l-.034-.205-.068-.137-.137-.171-.239-.205-.342-.239-.513-.308-.684-.547-.684-.615-.274-.274-.308-.239-.137-.068h0l-1.334-.718-.752-.445-.65-.547-.65-.376-.41-.171-.752-.376-.376-.205-.821-.479-.65-.308-.376-.171-.41-.239-.718-.718-.239-.205-.274-.308-.376-.615-.957-1.607-.308-.479-.342-.342-1.4-1.334-.342-.342-.342-.205-.923-.479-.786-.41-.479-.205-.684-.445-.376-.308-.171-.274-.171-.308-.068-.239-.068-.581-.034-.274L6,148.656l-.068-.342-.171-.65-.581-1.71-.239-.855-.274-1.06-.376-2.667-.171-.821-.205-.821h0l-.034-.137v-.171l.068-.171-.308-.205-.239-.205-.923-.752-.342-.376L2,137.577l.1-.205.034-.034h0l.992-2.086.239-.581.137-.342.068-.308.068-.41v-.957l.068-.342.171-.615.308-1.163.376-1.4.376-.889.513-1.231.855-1.71.171-.239.239-.205.308-.171.445-.171,2.291-.718,2.291-.718.068-.034-.034-.205h0l-.137-.889-.274-.923-.034-.137-.068-.547-.1-.992-.1-1.094.034-.1.068-.239.068-.068h0l.376-.376.376-.308.65-.342,1.128-.513,1.2-.752.239-.205.376-.308.581-.547.308-.274.513-.376.239-.171.41-.445.889-1.094.718-1.026.1-.068.205-.068h.137l.308.068.171.034h0l2.735.65,1.915.308,2.017.342.581.068.718.034,2.223.274.239-.034.205-.1,1.3-.855,1.4-.923,2.188-1.368.855-.581.889,1.128.957,1.231.376.513.274.308.445.479.821.752.581.445.718.513h0l.239.171.718-1.06,2.017-2.735,1.334-1.812.479-.615.205-.342.137-.205.308-.718.171-.445.137-.445.137-.889.034-.547.034-1.573-.034-.239-.171-.684-.274-1.3-.034-.342-.1-.992L47.2,98.357v-.205l.137-.239.547-1.094.684-1.4.513-1.094.308-.581.034-.137.034-.137V93.4l-.034-.171-.068-.1h0l-.41-.513-.171-.239-.1-.171-.034-.239-.1-.786-.1-.718-.376-1.846-.205-1.026.239-.171h0l.513-.376.41-.205.547-.137,1.231-.068.308-.034.205-.034.274-.171,1.265-.821.239-.205.239-.308.1-.308.068-.513V83.141l-.068-.581-.205-1.812-.239-1.573-.205-1.026h0l-.1-.513h.274l.137-.137h-.034l.239-.274.171-.342.171-.376.068-.1.1-.376.068-.239.034-.274-.034-.274-.171-.479-.068-.239v-.274l-.068-.376-.205-.376-.41-.718-.068-.1h-.034l-.137.068h0l-.718.41-.274.137-.547.205-.205.171-.547.615-.137-.1h0l-2.12-1.675-.137-.171-.1-.171-.068-.205-.1-.718-.034-.308V69.669l-.034-.992-.068-.342-.034-.445L47.375,66.8l-.068-.445h0l-.034-.342-.068-.171V65.7l.068-.376.034-.342v-.171l-.068-.137-.205-.342-.342-.479-.376-.513-.068-.137-.1.034H45.9l-.308-.068-2.086-.684-.581-.171-.65-.068-2.359-.1v-.239h0l-.068-.821-.205-1.5-.171-1.71-.239-2.257-.274-2.359-.137-.992-.171-1.607L38.416,48.3l-.068-.547-.068-.342-.342-.889-.205-.445-.684-.855-.376-.684-.376-.752-.239-.615-1.094-3.043-.547-1.573-.068-.205-.034-.239-.034-.684V35.612l-.068-.923-.068-1.094-.034-2.257-.068-1.368-.068-.786-.137-2.12L33.8,26.038,33.7,24.4l-.1-.752-.171-.479-.171-.342-.137-.205-.205-.171-.274-.205-.239-.137-.239-.1-.479-.171-.786-.205-.581-.205-.342-.1-.171-.1-.239-.205-.41-.308-.855-.615L27.2,19.3l-.376-.308-.274-.171-.1-.171-.068-.171-.1-.65L26.072,16.7V16.43l.1-.137h.034l.445-.581.992-.923.923-.821.274-.171.513-.205.513-.171.684-.205.786-.171.41-.137.342-.171,1.128-.855,1.163-.718,2.462-1.881.239-.137.239-.1.992-.308.445-.1.547-.239,2.6-1.163.615-.41L43,6.377l.889-.957.581-.513.376-.308.274-.205.205-.068,2.53-.821,2.257-.718L52.675,2l.205.239h0l.068.308V3.3l-.1.547v1.06l-.068.513-.034.41V6l.034.068.1.068.137.1.205.034.171.1.068.068.034.137v.239l.034.547V7.95l.068.376.034.615L53.6,9.967v.445l.034.342.171.718.274.786.239.786.274,1.026.205.786.1.376.034.274-.034.308-.1.239-.171.274L53.769,17.9l-.1.308-.034.205-.068.376-.068.581-.1.65-.1.445L52.743,21.8l-.1.342v.547l.068.445.171.821.171.786.137.786.034.513.068.479.171,1.06.274,1.573.342,2.188.034.137.1.308,1.2,1.846.034.171.034.171v.137l-.068.205-.239.41-.137.308h0l-.376.923-.239.41-.068.205v.1l.034.171.205.342.274.274.65.479.41.308.308.068H56.5l.684-.034h.171l.239.068.239.068.342.239.513.274.479.205.239.274.205.171.137.1.821.308.752.171.479.137.308.137.171.068.205.137.205.205v.205l.1.308.274.445.479.581.171.376.034.137.205.41.068.205.1.137.479.581.274.308.1.239.068.239.034.376v.786l-.034,1.06v.205l-.068.274-.1.239-.205.239-.479.479-.786.513-.752.513-.171.239-.171.274-.068.274-.034.308-.137.445-.171.342-.274.308-.171.445-.1.513-.274.752-.034.239.034.205.034.068.171.171.41.342,1.607,1.334,1.06.889.205.205h0l.342.308.376.342.239.308.068.137-.034.171,1.128,1.163.752.821.205.239.239.137.308.1.239.034h.376l.513-.034.445-.171.684-.479.274-.1.239-.034h.308l1.3-.034.513.034.239.034.239.171.308.342.308.342.376.171.376.034.342-.068.445-.171.274-.171v.239h0l.034,1.094-.034.718.034.171.137.65.205,1.06.171.923v.274l-.034.41-.068,1.026v.41l-.068.513-.034.376-.171.513-.205.445-.308.479-.034.137-.1.239-.034.274v.205l-.1.034-.239.034-.274.068-.445.1-1.231.615-.274.068-.034.205-.034.274v.1h0l-.205.957-.137.992-.239,1.094-.205.718-.239.786-.479,1.231-.137.479-.068.308-.171.65-.137.376-.171.479-.068.205-.034.171-.137.786-.068.274-.171.992v.821l.1.513.274.923.205.445.068.376.068.274v.821l-.068.65-.034.239-.171.615-.239.684-.068.308v.274l.1.274.239.547.205.445.1.445.1.684.034.376.1.274.445,1.5.342,1.3.068.376v.274l-.1.615-.068.547v.342l-.1.752-.1.376-.1.239-.068.137-.239.342-.342.274-.376.239-.581.581-.205.342-.1.239-.1.376-.068.239-.205.239-.581.684-.171.274-.581,1.231-.547,1.128-.137.308-.068.239-.137.615v.547l.034.308.137.034H68.3l.171.068.342.205,1.2.855.65.513.889.821.376.205.274.1.41.068.615.034.615.1,1.573.479.376.034.171-.034.239-.1.923-.513,1.539-.786.376-.137.274-.068h.171l.239.034.376.1.41.1.855.034h.445v.718l.034.171h0l.171.821.068.308.513,1.539.274.855.205.65.137.547.1.239-.137.171L82.9,116l-.342.308-.615.65-.342.41-.068.205.034.274.137.513.684,2.017.1.308.274.957.308,1.265.1.581.034.581.034.479.034.684.034.376.068,1.128.068,1.094.1.923.034.513.1.342.171.513.1.308.239.513.65,1.334.342.786.342,1.094.137.342.239.615.068.41.034.445v.342l-.068.479-.1.342-.205.479-.376.479-.479.615-.342.479-.068.205-.034.1-.1.65-.1.718-.068.239-.034.41v.547l.205,2.086.205,1.812-.274.1v.068l-3.18.923-.65.1-.547.068-1.163.137-.205.034-.718.171-.513.137-.513.034-.855-.068-.957.068-1.5.171-.376.068-.513.205-.923.445-.239.1-.992.821-.581.41-1.539.718-.376.171-.821.239-.752.171-1.163.137-1.026.1-1.4.1-1.4.1h-.513l-.581-.205-2.052-1.06-1.3-.65-.376-.171-.171-.034-1.778.068-2.12.1-1.744.068-.376.068-.171.41h0l-.137.376-.1.547.034,1.3.034,1.06.068,1.3.205,1.4.376.923.786,1.47.137.308.1.034v.068l.068.171.547.889.274.65-.376.1h0l-1.265.308-1.026.239-.513.068h-.65l-.65-.034-2.017-.342-.615-.034-1.744.034-.513-.068-.615-.034-.889.205-.581.068h-.239l-.274-.1-.205-.068-.41-.205-.581-.274-.205.41h0l-.718,1.3-.239.308-.274.239-.376.308-2.633,1.744-.684.479-.239.1-.308.068-.308.205-.239.171-.445.547-.239.205-1.026.581-.65.445-.718.684-.513.513-.239.308-.479.923-.445.855-.445.786.41.205.205.1v.034l1.06.479.41.239.205.205.171.205.1.171.137.41.239,1.094.1.615v.41l-.034.547-.342,4.035-.957,6.839-.513,3.864-.137.752-.171.786-.1.445-.034.513.034.513.274,1.47.615,3.146.205.957L30,201.314l.445,2.8.308,1.983.376,2.086.205,1.231.137.137.205.1.547.171.479.171.068.034.034.068.034.137.034.342.068.239.1.274.41.684.137.171-.034.239.034.137-.137.034h0l-.855.137-1.641.239-1.094.171-.034-.137-.445.034-1.3.205-1.881.239h0l-4.616.65-1.06.1h-.205l-.479-.137-.239-.205-.171-.274L19.1,212.5l-.171-.274-.308-.342-.581-.41-1.334-.889-.239-.171-.342-.308-1.06-1.163-1.3-1.436-.308-.342-.239-.308-.479-.752-.171-.205-.513-.547-.342-.274-.342-.205-.752-.376-.718-.376-.547-.376L8.77,203.3l-.581-.513-.239-.205-.137-.137-.171-.239-1.334-1.949-2.941-4.172-.068-.205-.239-.308-.068.034-.034-.068-.376-.547.615-.41.923-.684.821-.581,2.12-1.47.171-.137h0l.274-.171.137-.034.274.034,1.949.376,1.71.342.957.308,1.539.479,1.47.239.342.068h.068l.034.1-.034.205v.034h0l-.034.1-.137.171L14,196.219l-.205.274v.034l.342.308,1.265.992h0l.205.171-.342.479-.068.137v.171l.068.1.923.479,1.128.547.342.068h.171l.718-.205-.034-.068" fill="none" stroke="#fff" stroke-linejoin="round" stroke-width="2"/>
  </g>
</svg>
