<svg xmlns="http://www.w3.org/2000/svg" width="32" height="32" viewBox="0 0 32 32">
  <g id="Group_112" data-name="Group 112" transform="translate(-79 -293)">
    <rect id="Rectangle_13" data-name="Rectangle 13" width="32" height="32" rx="8" transform="translate(79 293)" fill="#707070"/>
    <path id="ua" d="M6.838,6.007A6.191,6.191,0,0,1,10,5.214a6.315,6.315,0,0,1,3.162.794A6.191,6.191,0,0,1,10,6.8a6.315,6.315,0,0,1-3.162-.794Zm9.536,0c2.149-.952,3.529-2.381,3.614-3.98A15.371,15.371,0,0,0,14.676,0V3.785h0a2.244,2.244,0,0,1-.586,1.453A17.335,17.335,0,0,0,10,4.774a18,18,0,0,0-4.09.464,2.244,2.244,0,0,1-.586-1.453h0V0A15.441,15.441,0,0,0,0,2.027c.085,1.6,1.477,3.028,3.614,3.98C1.477,6.96.085,8.376,0,9.976A15.441,15.441,0,0,0,5.324,12V8.217h0A2.244,2.244,0,0,1,5.91,6.764,17.335,17.335,0,0,0,10,7.228a18,18,0,0,0,4.09-.464,2.244,2.244,0,0,1,.586,1.453h0V12A15.637,15.637,0,0,0,20,9.976c-.085-1.6-1.477-3.016-3.626-3.968Z" transform="translate(85 303)" fill="rgba(255,255,255,0.8)"/>
  </g>
</svg>
