<svg xmlns="http://www.w3.org/2000/svg" width="48" height="48" viewBox="0 0 48 48">
  <path id="Cloud-Drizzle" d="M67.221,67.79V63.01a8.718,8.718,0,1,0-9.093-14.87A13.076,13.076,0,1,0,36.673,60.835V66.2a17.447,17.447,0,1,1,23.965-23.6,13.067,13.067,0,0,1,6.582,25.2Zm-24-12.329A2.182,2.182,0,0,1,45.4,57.644v4.362a2.182,2.182,0,0,1-4.364,0V57.644A2.181,2.181,0,0,1,43.22,55.462Zm0,13.09A2.182,2.182,0,0,1,45.4,70.734V75.1a2.182,2.182,0,0,1-4.364,0V70.734A2.181,2.181,0,0,1,43.22,68.552Zm8.726-8.728a2.182,2.182,0,0,1,2.182,2.182V66.37a2.181,2.181,0,1,1-4.362,0V62.006A2.182,2.182,0,0,1,51.946,59.824Zm0,13.092a2.181,2.181,0,0,1,2.182,2.18V79.46a2.181,2.181,0,1,1-4.362,0V75.1A2.18,2.18,0,0,1,51.946,72.916Zm8.728-17.454a2.182,2.182,0,0,1,2.182,2.182v4.362a2.182,2.182,0,0,1-4.364,0V57.644A2.181,2.181,0,0,1,60.674,55.462Zm0,13.09a2.182,2.182,0,0,1,2.182,2.182V75.1a2.182,2.182,0,0,1-4.364,0V70.734A2.181,2.181,0,0,1,60.674,68.552Z" transform="translate(-27.947 -33.642)" fill="#fff" fill-rule="evenodd"/>
</svg>
